<svg xmlns="http://www.w3.org/2000/svg" viewBox="0 0 480 240" fill="none" role="img" aria-label="Crossed blades emblem">
  <defs>
    <radialGradient id="glow" cx="50%" cy="46%" r="58%">
      <stop offset="0%" stop-color="#c9a24a" stop-opacity="0.22"/>
      <stop offset="60%" stop-color="#c9a24a" stop-opacity="0.05"/>
      <stop offset="100%" stop-color="#c9a24a" stop-opacity="0"/>
    </radialGradient>
    <linearGradient id="g" x1="0" y1="0" x2="0" y2="1">
      <stop offset="0%" stop-color="#e6c876"/>
      <stop offset="100%" stop-color="#b3862f"/>
    </linearGradient>
  </defs>
  <rect width="480" height="240" fill="url(#glow)"/>
  <g stroke="#5f5636" stroke-width="1.4" opacity="0.55">
    <circle cx="240" cy="112" r="92"/>
    <circle cx="240" cy="112" r="80" stroke-dasharray="2 9"/>
  </g>
  <g stroke="url(#g)" stroke-width="3.4" stroke-linecap="round" stroke-linejoin="round">
    <path d="M150 182 L326 44"/>
    <path d="M137 191 L157 175"/>
    <path d="M130 197 L148 182"/>
    <path d="M330 182 L154 44"/>
    <path d="M343 191 L323 175"/>
    <path d="M350 197 L332 182"/>
  </g>
  <g fill="url(#g)">
    <path d="M240 166 q-6 9 0 17 q6 -8 0 -17Z"/>
    <path d="M211 177 q-5 8 0 14 q5 -7 0 -14Z"/>
    <path d="M269 177 q-5 8 0 14 q5 -7 0 -14Z"/>
  </g>
</svg>
